<?xml version="1.0" encoding="UTF-8" standalone="no"?>
<!-- Created with Inkscape (http://www.inkscape.org/) -->

<svg
   xmlns:dc="http://purl.org/dc/elements/1.1/"
   xmlns:cc="http://creativecommons.org/ns#"
   xmlns:rdf="http://www.w3.org/1999/02/22-rdf-syntax-ns#"
   xmlns:svg="http://www.w3.org/2000/svg"
   xmlns="http://www.w3.org/2000/svg"
   xmlns:xlink="http://www.w3.org/1999/xlink"
   xmlns:sodipodi="http://sodipodi.sourceforge.net/DTD/sodipodi-0.dtd"
   xmlns:inkscape="http://www.inkscape.org/namespaces/inkscape"
   width="512"
   height="512"
   viewBox="0 0 512.00001 512.00001"
   id="svg2"
   version="1.1"
   inkscape:version="0.91 r13725"
   sodipodi:docname="icon-raw.svg"
   inkscape:export-filename="C:\Users\yargh\Downloads\icon-96.png"
   inkscape:export-xdpi="16.875"
   inkscape:export-ydpi="16.875">
  <defs
     id="defs4">
    <linearGradient
       id="linearGradient4244"
       inkscape:collect="always">
      <stop
         style="stop-color:#ffffff;stop-opacity:1"
         offset="0"
         id="stop4246" />
      <stop
         style="stop-color:#13708e;stop-opacity:1;"
         offset="1"
         id="stop4250" />
    </linearGradient>
    <linearGradient
       inkscape:collect="always"
       id="linearGradient4151">
      <stop
         id="stop4155"
         offset="0"
         style="stop-color:#ffffff;stop-opacity:1" />
      <stop
         style="stop-color:#89b7c6;stop-opacity:1;"
         offset="0.16499686"
         id="stop4161" />
      <stop
         id="stop4153"
         offset="1"
         style="stop-color:#13708e;stop-opacity:1;" />
    </linearGradient>
    <linearGradient
       inkscape:collect="always"
       xlink:href="#linearGradient4244"
       id="linearGradient4309"
       gradientUnits="userSpaceOnUse"
       spreadMethod="reflect"
       x1="-1041.7144"
       y1="802.07648"
       x2="-279.42859"
       y2="802.07648"
       gradientTransform="translate(540,-2.2617187e-5)" />
    <linearGradient
       inkscape:collect="always"
       xlink:href="#linearGradient4151"
       id="linearGradient4366"
       gradientUnits="userSpaceOnUse"
       spreadMethod="reflect"
       x1="-735.71429"
       y1="802.07648"
       x2="-279.42859"
       y2="802.07648" />
    <linearGradient
       inkscape:collect="always"
       xlink:href="#linearGradient4151"
       id="linearGradient4199"
       gradientUnits="userSpaceOnUse"
       gradientTransform="translate(540,-2.2617187e-5)"
       spreadMethod="reflect"
       x1="-735.71429"
       y1="802.07648"
       x2="-279.42859"
       y2="802.07648" />
  </defs>
  <sodipodi:namedview
     id="base"
     pagecolor="#ffffff"
     bordercolor="#666666"
     borderopacity="1.0"
     inkscape:pageopacity="0.0"
     inkscape:pageshadow="2"
     inkscape:zoom="0.98994949"
     inkscape:cx="372.94794"
     inkscape:cy="254.64064"
     inkscape:document-units="px"
     inkscape:current-layer="layer1"
     showgrid="false"
     units="px"
     inkscape:window-width="1920"
     inkscape:window-height="1017"
     inkscape:window-x="-8"
     inkscape:window-y="-8"
     inkscape:window-maximized="1" />
  <metadata
     id="metadata7">
    <rdf:RDF>
      <cc:Work
         rdf:about="">
        <dc:format>image/svg+xml</dc:format>
        <dc:type
           rdf:resource="http://purl.org/dc/dcmitype/StillImage" />
        <dc:title />
      </cc:Work>
    </rdf:RDF>
  </metadata>
  <g
     inkscape:label="Layer 1"
     inkscape:groupmode="layer"
     id="layer1"
     transform="translate(0,-540.36216)">
    <g
       id="g4330"
       transform="translate(-560,0)">
      <g
         id="g4332"
         transform="translate(540,-2.2617187e-5)">
        <circle
           style="fill:url(#linearGradient4366);fill-opacity:1;stroke:none;stroke-width:15.81799984;stroke-linecap:butt;stroke-linejoin:miter;stroke-miterlimit:4;stroke-dasharray:none;stroke-opacity:1"
           id="circle4334"
           cx="-284"
           cy="796.36218"
           r="256" />
        <circle
           cy="796.36218"
           cx="-284"
           id="circle4336"
           style="fill:none;fill-opacity:1;stroke:#ffffff;stroke-width:20;stroke-linecap:butt;stroke-linejoin:miter;stroke-miterlimit:4;stroke-dasharray:none;stroke-opacity:1"
           r="226" />
      </g>
      <g
         id="g4338">
        <g
           id="g4340">
          <rect
             style="opacity:0.5;fill:#ffffff;fill-opacity:1;stroke:none;stroke-width:20;stroke-linecap:butt;stroke-linejoin:miter;stroke-miterlimit:4;stroke-dasharray:none;stroke-opacity:1"
             id="rect4342"
             width="296"
             height="198"
             x="108"
             y="718.36218"
             ry="23.941837"
             rx="23.941837" />
          <rect
             y="689.36218"
             x="138"
             height="43"
             width="43"
             id="rect4344"
             style="opacity:0.5;fill:#ffffff;fill-opacity:1;stroke:none;stroke-width:20;stroke-linecap:butt;stroke-linejoin:miter;stroke-miterlimit:4;stroke-dasharray:none;stroke-opacity:1"
             rx="10"
             ry="10" />
          <rect
             ry="10"
             rx="10"
             style="opacity:0.5;fill:#ffffff;fill-opacity:1;stroke:none;stroke-width:20;stroke-linecap:butt;stroke-linejoin:miter;stroke-miterlimit:4;stroke-dasharray:none;stroke-opacity:1"
             id="rect4346"
             width="43"
             height="43"
             x="331"
             y="689.36218" />
        </g>
        <g
           id="g4348">
          <g
             id="g4350">
            <g
               id="g4352">
              <rect
                 ry="10.000001"
                 rx="10"
                 style="opacity:0.5;fill:#000000;fill-opacity:1;stroke:none;stroke-width:20;stroke-linecap:butt;stroke-linejoin:miter;stroke-miterlimit:4;stroke-dasharray:none;stroke-opacity:1"
                 id="rect4354"
                 width="14"
                 height="54"
                 x="161"
                 y="742.36218" />
              <rect
                 y="-195"
                 x="762.36218"
                 height="54"
                 width="14"
                 id="rect4356"
                 style="opacity:0.5;fill:#000000;fill-opacity:1;stroke:none;stroke-width:20;stroke-linecap:butt;stroke-linejoin:miter;stroke-miterlimit:4;stroke-dasharray:none;stroke-opacity:1"
                 rx="10"
                 ry="10.000001"
                 transform="matrix(0,1,-1,0,0,0)" />
            </g>
            <rect
               y="-381"
               x="762.36218"
               height="58"
               width="14"
               id="rect4358"
               style="opacity:0.5;fill:#000000;fill-opacity:1;stroke:none;stroke-width:20;stroke-linecap:butt;stroke-linejoin:miter;stroke-miterlimit:4;stroke-dasharray:none;stroke-opacity:1"
               rx="10"
               ry="10.000001"
               transform="matrix(0,1,-1,0,0,0)" />
          </g>
          <g
             id="g4360">
            <rect
               transform="matrix(0,1,-1,0,0,0)"
               ry="30"
               rx="30"
               style="opacity:0.5;fill:#000000;fill-opacity:1;stroke:none;stroke-width:20;stroke-linecap:butt;stroke-linejoin:miter;stroke-miterlimit:4;stroke-dasharray:none;stroke-opacity:1"
               id="rect4362"
               width="70.428574"
               height="253"
               x="824.36218"
               y="-381" />
            <rect
               y="-381"
               x="824.36218"
               height="253"
               width="45.428574"
               id="rect4364"
               style="opacity:0.5;fill:#000000;fill-opacity:1;stroke:none;stroke-width:20;stroke-linecap:butt;stroke-linejoin:miter;stroke-miterlimit:4;stroke-dasharray:none;stroke-opacity:1"
               transform="matrix(0,1,-1,0,0,0)"
               ry="10" />
          </g>
        </g>
      </g>
    </g>
    <circle
       r="256"
       cy="796.36218"
       cx="256"
       id="circle4305"
       style="fill:url(#linearGradient4309);fill-opacity:1;stroke:none;stroke-width:15.81799984;stroke-linecap:butt;stroke-linejoin:miter;stroke-miterlimit:4;stroke-dasharray:none;stroke-opacity:1" />
    <circle
       r="226"
       style="fill:none;fill-opacity:1;stroke:#ffffff;stroke-width:20;stroke-linecap:butt;stroke-linejoin:miter;stroke-miterlimit:4;stroke-dasharray:none;stroke-opacity:1"
       id="circle4307"
       cx="256"
       cy="796.36218" />
    <path
       style="opacity:1;fill:#ffffff;fill-opacity:1;stroke:none;stroke-width:20;stroke-linecap:butt;stroke-linejoin:miter;stroke-miterlimit:4;stroke-dasharray:none;stroke-opacity:1"
       d="M 148 149 C 142.46 149 138 153.46 138 159 L 138 178 L 131.94141 178 C 118.67763 178 108 188.67763 108 201.94141 L 108 352.05859 C 108 365.32237 118.67763 376 131.94141 376 L 380.05859 376 C 393.32237 376 404 365.32237 404 352.05859 L 404 201.94141 C 404 188.67763 393.32237 178 380.05859 178 L 374 178 L 374 159 C 374 153.46 369.54 149 364 149 L 341 149 C 335.46 149 331 153.46 331 159 L 331 178 L 181 178 L 181 159 C 181 153.46 176.54 149 171 149 L 148 149 z M 169 202 C 172.878 202 176 206.46 176 212 L 176 222 L 186 222 C 191.54 222 196 225.122 196 229 C 196 232.878 191.54 236 186 236 L 176 236 L 176 246 C 176 251.54 172.878 256 169 256 C 165.122 256 162 251.54 162 246 L 162 236 L 152 236 C 146.46 236 142 232.878 142 229 C 142 225.122 146.46 222 152 222 L 162 222 L 162 212 C 162 206.46 165.122 202 169 202 z M 322 222 L 360 222 C 365.54 222 370 225.122 370 229 C 370 232.878 365.54 236 360 236 L 322 236 C 316.46 236 312 232.878 312 229 C 312 225.122 316.46 222 322 222 z M 216.27148 287.88672 L 236.27148 287.88672 L 275.72852 287.88672 L 295.72852 287.88672 C 301.26852 287.88672 305.72852 292.34672 305.72852 297.88672 L 305.72852 317.88672 L 305.72852 323.31641 L 305.72852 328.31641 C 305.72852 344.93641 292.34852 358.31641 275.72852 358.31641 L 236.27148 358.31641 C 219.65148 358.31641 206.27148 344.93641 206.27148 328.31641 L 206.27148 323.31641 L 206.27148 317.88672 L 206.27148 297.88672 C 206.27148 292.34672 210.73148 287.88672 216.27148 287.88672 z "
       id="rect4163"
       transform="translate(0,540.36216)" />
    <g
       id="g4179"
       transform="translate(584.87833,0)">
      <g
         id="g4181">
        <g
           id="g4183">
          <circle
             r="256"
             cy="796.36218"
             cx="256"
             id="circle4185"
             style="fill:url(#linearGradient4199);fill-opacity:1;stroke:none;stroke-width:15.81799984;stroke-linecap:butt;stroke-linejoin:miter;stroke-miterlimit:4;stroke-dasharray:none;stroke-opacity:1" />
          <circle
             r="226"
             style="fill:none;fill-opacity:1;stroke:#ffffff;stroke-width:20;stroke-linecap:butt;stroke-linejoin:miter;stroke-miterlimit:4;stroke-dasharray:none;stroke-opacity:1"
             id="circle4187"
             cx="256"
             cy="796.36218" />
        </g>
        <path
           inkscape:connector-curvature="0"
           id="path4189"
           d="m 148,689.36216 c -5.54,0 -10,4.46 -10,10 l 0,19 -6.05859,0 C 118.67763,718.36216 108,729.03979 108,742.30357 l 0,150.11718 c 0,13.26378 10.67763,23.94141 23.94141,23.94141 l 248.11718,0 C 393.32237,916.36216 404,905.68453 404,892.42075 l 0,-150.11718 c 0,-13.26378 -10.67763,-23.94141 -23.94141,-23.94141 l -6.05859,0 0,-19 c 0,-5.54 -4.46,-10 -10,-10 l -23,0 c -5.54,0 -10,4.46 -10,10 l 0,19 -150,0 0,-19 c 0,-5.54 -4.46,-10 -10,-10 l -23,0 z"
           style="opacity:1;fill:#ffffff;fill-opacity:1;stroke:none;stroke-width:20;stroke-linecap:butt;stroke-linejoin:miter;stroke-miterlimit:4;stroke-dasharray:none;stroke-opacity:1" />
      </g>
      <path
         inkscape:connector-curvature="0"
         style="opacity:1;fill:#13708e;fill-opacity:1;stroke:none;stroke-width:20;stroke-linecap:butt;stroke-linejoin:miter;stroke-miterlimit:4;stroke-dasharray:none;stroke-opacity:1"
         d="m 169,742.36216 c -3.878,0 -7,4.46 -7,10 l 0,10 -10,0 c -5.54,0 -10,3.122 -10,7 0,3.878 4.46,7 10,7 l 10,0 0,10 c 0,5.54 3.122,10 7,10 3.878,0 7,-4.46 7,-10 l 0,-10 10,0 c 5.54,0 10,-3.122 10,-7 0,-3.878 -4.46,-7 -10,-7 l -10,0 0,-10 c 0,-5.54 -3.122,-10 -7,-10 z"
         id="path4191" />
      <rect
         transform="matrix(0,1,-1,0,0,0)"
         ry="10.000001"
         rx="10"
         style="opacity:1;fill:#13708e;fill-opacity:1;stroke:none;stroke-width:20;stroke-linecap:butt;stroke-linejoin:miter;stroke-miterlimit:4;stroke-dasharray:none;stroke-opacity:1"
         id="rect4193"
         width="14"
         height="58"
         x="762.36218"
         y="-370" />
      <rect
         transform="matrix(0,1,-1,0,0,0)"
         ry="30"
         rx="30"
         style="opacity:1;fill:#13708e;fill-opacity:1;stroke:none;stroke-width:20;stroke-linecap:butt;stroke-linejoin:miter;stroke-miterlimit:4;stroke-dasharray:none;stroke-opacity:1"
         id="rect4195"
         width="70.428574"
         height="99.45681"
         x="828.24933"
         y="-305.72839" />
      <rect
         y="-305.72839"
         x="828.24933"
         height="99.45681"
         width="45.428574"
         id="rect4197"
         style="opacity:1;fill:#13708e;fill-opacity:1;stroke:none;stroke-width:20;stroke-linecap:butt;stroke-linejoin:miter;stroke-miterlimit:4;stroke-dasharray:none;stroke-opacity:1"
         transform="matrix(0,1,-1,0,0,0)"
         ry="10"
         rx="10" />
    </g>
  </g>
</svg>
